<svg width="54" height="51" viewBox="0 0 54 51" fill="none" xmlns="http://www.w3.org/2000/svg">
<g id="24-7">
<path id="Vector" d="M52.9214 21.2121C52.5449 20.9384 52.0318 21.0239 51.7668 21.4003L50.5949 23.0168C49.449 10.5457 39.1248 1 26.4056 1C13.0363 1 2.15589 11.8542 2.11355 25.2155C1.42087 26.0196 1.01885 27.0202 1.00151 28.098C0.924726 32.7597 3.77297 38.559 8.44288 43.2296C13.0533 47.84 18.7587 50.6796 23.395 50.6796H23.5832C24.6523 50.6627 25.6446 50.2689 26.4401 49.5849C37.0463 49.568 46.3359 42.7763 49.5518 32.6741C49.6888 32.2378 49.449 31.7758 49.013 31.6305C48.5767 31.4935 48.1148 31.7333 47.9695 32.1692C45.1555 41.0136 37.3461 47.1294 28.2198 47.8562L29.2634 46.8213C29.5115 46.5732 29.7253 46.2566 29.8706 45.9148C30.3156 44.8457 30.0758 43.6308 29.2634 42.8184L25.7221 39.2771C24.6187 38.1737 22.8309 38.1737 21.7275 39.2771L19.1187 41.8859C19.0931 41.9115 19.0419 41.9288 19.0159 41.9029C17.117 40.7483 15.3379 39.3452 13.7214 37.7201C12.1817 36.1804 10.8388 34.504 9.71811 32.7162C9.70118 32.6906 9.70944 32.6394 9.73504 32.6134L12.3951 29.9533C13.4985 28.85 13.4985 27.0539 12.3951 25.9588L8.85376 22.4174C7.91301 21.4767 6.41578 21.3227 5.25254 22.0925C5.1155 22.1953 4.98752 22.2977 4.85915 22.4261L4.10663 23.1873C4.09797 23.1959 4.0897 23.1959 4.08103 23.2042C4.07237 23.2129 4.07237 23.2211 4.0641 23.2298L3.86721 23.4267C4.81663 11.8114 14.5591 2.6589 26.4062 2.6589C38.4489 2.6589 48.1922 11.8456 48.9876 23.7432L46.832 22.178C46.4555 21.9129 45.9424 21.9897 45.6774 22.3662C45.4124 22.734 45.4892 23.2558 45.8656 23.5208L49.3983 26.0784C49.5436 26.1812 49.7149 26.2324 49.8858 26.2324C50.1426 26.2324 50.3989 26.1127 50.5529 25.8902L53.1105 22.3575C53.3755 21.998 53.2897 21.4762 52.9219 21.2112L52.9214 21.2121ZM24.5495 40.4486L28.0909 43.9899C28.4244 44.3235 28.5272 44.8283 28.3476 45.2729C28.2878 45.4183 28.2023 45.5466 28.0995 45.6494L27.8944 45.8463L22.694 40.6459L22.8909 40.449C23.352 39.9867 24.0963 39.9867 24.5495 40.4486ZM8.57121 31.4332C7.98959 32.0148 7.8868 32.9044 8.31446 33.5888C9.5033 35.479 10.9233 37.2581 12.5485 38.8833C14.2591 40.594 16.1497 42.0824 18.1595 43.3055C18.8439 43.7245 19.7248 43.6135 20.2978 43.0405L21.5296 41.8087L26.7217 47.0008L25.5328 48.1897C25.0111 48.7114 24.3097 49.0025 23.5568 49.0107H23.3859C19.1775 49.0107 13.9255 46.3589 9.61427 42.0482C5.25193 37.6859 2.5832 32.3484 2.66042 28.1234C2.67735 27.3708 2.96836 26.6691 3.48146 26.139L4.66204 24.9415L9.85414 30.1336L8.57121 31.4332ZM6.20178 23.4354C6.39867 23.307 6.62943 23.2385 6.85192 23.2385C7.15986 23.2385 7.45914 23.3582 7.68163 23.5807L11.223 27.122C11.6762 27.5753 11.6762 28.3195 11.223 28.7728L11.0261 28.9697L5.83398 23.7776L6.03088 23.5807C6.09939 23.5125 6.17618 23.4527 6.20178 23.4354Z" fill="white" stroke="white" stroke-width="0.6"/>
<path id="Vector_2" d="M26.4054 9.21086C26.8674 9.21086 27.2352 8.84307 27.2352 8.38115V5.44739C27.2352 4.98548 26.8674 4.61768 26.4054 4.61768C25.9435 4.61768 25.5757 4.98547 25.5757 5.44739V8.38115C25.5757 8.84306 25.9435 9.21086 26.4054 9.21086Z" fill="#FFB703"/>
<path id="Vector_3" d="M15.6622 7.50075C15.2688 7.73151 15.1317 8.23635 15.3629 8.62971L16.8254 11.17C16.9794 11.435 17.2617 11.5807 17.5441 11.5807C17.6811 11.5807 17.8264 11.5465 17.9548 11.4697C18.3482 11.2389 18.4852 10.7341 18.2541 10.3407L16.7915 7.80041C16.5687 7.40663 16.0555 7.2696 15.6622 7.50075Z" fill="#FFB703"/>
<path id="Vector_4" d="M36.0106 44.4094C36.1645 44.6744 36.4469 44.8201 36.7292 44.8201C36.8663 44.8201 37.0116 44.7858 37.14 44.709C37.5333 44.4783 37.6704 43.9735 37.4392 43.5801L35.9767 41.0398C35.7459 40.6464 35.2411 40.5094 34.8477 40.7405C34.4543 40.9713 34.3173 41.4761 34.5484 41.8695L36.0106 44.4094Z" fill="#FFB703"/>
<path id="Vector_5" d="M8.93009 15.0616C8.5367 14.8309 8.02359 14.9675 7.80112 15.3609C7.57036 15.7543 7.70701 16.2674 8.10041 16.4899L10.6407 17.9524C10.7691 18.0292 10.9144 18.0635 11.0514 18.0635C11.3338 18.0635 11.6161 17.9182 11.7701 17.6527C12.0009 17.2594 11.8642 16.7462 11.4708 16.5238L8.93009 15.0616Z" fill="#FFB703"/>
<path id="Vector_6" d="M44.7094 35.7185L42.1691 34.256C41.7758 34.0252 41.2626 34.1618 41.0402 34.5552C40.8094 34.9486 40.9461 35.4617 41.3395 35.6842L43.8798 37.1467C44.0081 37.2235 44.1534 37.2578 44.2905 37.2578C44.5728 37.2578 44.8552 37.1125 45.0091 36.8471C45.2399 36.4541 45.1028 35.941 44.7094 35.7185Z" fill="#FFB703"/>
<path id="Vector_7" d="M45.0088 15.3611C44.7781 14.9677 44.2732 14.8306 43.8799 15.0618L41.3396 16.5243C40.9462 16.7551 40.8091 17.2599 41.0403 17.6533C41.1942 17.9183 41.4766 18.064 41.7589 18.064C41.896 18.064 42.0413 18.0298 42.1697 17.953L44.71 16.4904C45.103 16.2675 45.24 15.7627 45.0088 15.3611Z" fill="#FFB703"/>
<path id="Vector_8" d="M37.1487 7.50058C36.7553 7.26982 36.2422 7.40647 36.0198 7.79987L34.5572 10.3402C34.3264 10.7336 34.4631 11.2467 34.8565 11.4691C34.9849 11.5459 35.1302 11.5802 35.2672 11.5802C35.5496 11.5802 35.8319 11.4349 35.9859 11.1695L37.4484 8.62917C37.6788 8.23617 37.5421 7.73132 37.1487 7.50058Z" fill="#FFB703"/>
<path id="Vector_9" d="M25.4558 21.9563C24.0358 22.3241 22.9754 23.6157 22.9754 25.1554C22.9754 26.9857 24.4635 28.4742 26.2856 28.4742C26.9956 28.4742 27.6713 28.2435 28.2356 27.8327L34.5736 33.0591C34.7276 33.1875 34.9158 33.2473 35.1041 33.2473C35.3435 33.2473 35.5829 33.1446 35.7455 32.9481C36.0366 32.5972 35.985 32.0754 35.6345 31.7848L29.2878 26.5502C29.4847 26.1139 29.6044 25.6437 29.6044 25.1558C29.6044 23.6161 28.5439 22.3244 27.1153 21.9567V12.462C27.1153 12.0001 26.7475 11.6323 26.2856 11.6323C25.8237 11.6323 25.4559 12.0001 25.4559 12.462L25.4558 21.9563ZM27.9449 25.155C27.9449 25.5397 27.8079 25.9162 27.5684 26.2072C27.2518 26.592 26.7816 26.8144 26.2854 26.8144C25.3703 26.8144 24.6347 26.0702 24.6347 25.155C24.6347 24.2398 25.3789 23.4956 26.2854 23.4956C27.2006 23.4956 27.9449 24.2398 27.9449 25.155Z" fill="#FFB703"/>
</g>
</svg>
