<svg width="75" height="45" viewBox="0 0 75 45" fill="none" xmlns="http://www.w3.org/2000/svg">
<g id="Delivery">
<path id="Vector" d="M10.7487 12.3485C10.3851 12.2904 10.0126 12.3788 9.71439 12.5944C9.41564 12.8104 9.21526 13.1364 9.15719 13.5L8.87206 15.2793H6.94568C6.17869 15.2793 5.55664 15.9014 5.55664 16.6683C5.55664 17.4353 6.1787 18.0574 6.94568 18.0574H23.6138C24.3808 18.0574 25.0029 17.4353 25.0029 16.6683C25.0029 15.9014 24.3808 15.2793 23.6138 15.2793H11.6854L11.9004 13.9389H11.9009C12.0218 13.1819 11.5064 12.4703 10.7494 12.3484L10.7487 12.3485Z" fill="#FFB703"/>
<path id="Vector_2" d="M57.0713 1.46233C56.2803 0.533686 55.1214 -0.00103459 53.9013 3.68888e-05H14.8715C13.8795 -0.00414857 12.9184 0.347959 12.1634 0.991461C11.4085 1.6355 10.9094 2.52809 10.7561 3.50849L9.98228 8.33376H1.38904C0.622046 8.33376 0 8.95529 0 9.72279C0 10.4898 0.62206 11.1113 1.38904 11.1113H18.0572C18.8242 11.1113 19.4457 10.4898 19.4457 9.72279C19.4457 8.95528 18.8242 8.33376 18.0572 8.33376H12.7972L13.4988 3.9474H13.4983C13.6065 3.27301 14.1883 2.77756 14.8705 2.77808H53.9004C54.3069 2.77808 54.6931 2.95648 54.9567 3.26568C55.2204 3.57541 55.3355 3.98454 55.2712 4.38634L54.2311 10.8838V10.8921L52.3989 22.3414C52.1613 23.8602 51.3875 25.244 50.2172 26.2417C49.0474 27.2394 47.5583 27.7846 46.0208 27.7789H9.68564L10.7885 20.8802C10.9099 20.1226 10.394 19.41 9.63646 19.2892C8.8789 19.1678 8.16626 19.6837 8.04545 20.4412L6.82173 28.0928C6.06783 28.4768 5.53 29.1826 5.3605 30.0113L4.85929 32.5116V32.511C4.61182 33.7358 4.92783 35.0072 5.71941 35.9739C6.51099 36.9408 7.69441 37.5016 8.94375 37.5016H12.5009C12.5009 39.9824 13.8246 42.2751 15.9733 43.516C18.122 44.7565 20.7694 44.7565 22.9181 43.516C25.0668 42.2751 26.3905 39.9824 26.3905 37.5016H51.392C51.392 39.9824 52.7157 42.2751 54.8644 43.516C57.0131 44.7565 59.6605 44.7565 61.8092 43.516C63.9579 42.2751 65.2816 39.9824 65.2816 37.5016H68.7958C69.7469 37.5037 70.6698 37.1809 71.4122 36.586C72.1541 35.9911 72.6704 35.1608 72.875 34.2322L74.9013 25.0651H74.9018C75.0279 24.4943 75.0326 23.9031 74.9154 23.3302C74.9154 23.3151 74.9045 23.3009 74.9013 23.2858H74.9018C74.7972 22.7751 74.5974 22.2891 74.3112 21.8539L67.4832 11.5827V11.5822C67.3309 11.3577 67.1562 11.149 66.9626 10.9585C66.9417 10.9376 66.9181 10.9182 66.8962 10.8973L66.8956 10.8978C66.724 10.733 66.5383 10.5839 66.34 10.4516C66.3139 10.4333 66.2872 10.4139 66.2595 10.3972V10.3977C66.024 10.2418 65.7719 10.112 65.5082 10.01C65.0295 9.82114 64.5188 9.72331 64.0041 9.72279H57.2258L58.0106 4.82534C58.2052 3.62097 57.862 2.39201 57.072 1.46237L57.0713 1.46233ZM19.4451 41.6682C18.1591 41.6818 16.9406 41.0942 16.1505 40.0798C15.36 39.0649 15.089 37.7396 15.417 36.496C15.417 36.4835 15.4296 36.474 15.4338 36.4599C15.6525 35.6254 16.1238 34.8799 16.7841 34.3249C16.8495 34.2694 16.9118 34.2124 16.9814 34.1622C17.0923 34.079 17.2089 34.0052 17.3288 33.933C17.448 33.8608 17.5328 33.8163 17.6385 33.7651C17.7442 33.7138 17.8566 33.6625 17.9691 33.618H17.9686C18.1094 33.5647 18.2527 33.5181 18.3981 33.4794C18.4928 33.4543 18.5844 33.425 18.6759 33.4072C19.1824 33.3031 19.705 33.3031 20.212 33.4072C20.3078 33.4255 20.3993 33.4543 20.4899 33.4794C20.6358 33.5181 20.7786 33.56 20.9189 33.618C21.0313 33.6625 21.1412 33.7127 21.2495 33.7651C21.3578 33.8179 21.4577 33.8734 21.5592 33.933C21.6607 33.9926 21.7952 34.079 21.9066 34.1622C21.9762 34.2124 22.0453 34.2689 22.1039 34.3249C22.7636 34.88 23.2355 35.6255 23.4537 36.4599C23.4537 36.474 23.4662 36.4835 23.4704 36.4976C23.5588 36.8251 23.6064 37.162 23.6122 37.5016C23.6122 38.6065 23.1733 39.6665 22.3916 40.4481C21.61 41.2292 20.5506 41.6682 19.4451 41.6682ZM58.3357 41.6682C57.0497 41.6818 55.8312 41.0942 55.0411 40.0798C54.2506 39.0649 53.9796 37.7396 54.3076 36.496C54.3076 36.4835 54.3202 36.474 54.3244 36.4599C54.5425 35.6254 55.0144 34.8799 55.6747 34.3249C55.7401 34.2694 55.8024 34.2124 55.8719 34.1622C55.9829 34.079 56.0995 34.0052 56.2193 33.933C56.3386 33.8608 56.4234 33.8163 56.5291 33.7651C56.6348 33.7138 56.7472 33.6625 56.8597 33.618H56.8592C56.9999 33.5647 57.1433 33.5181 57.2882 33.4794C57.3829 33.4543 57.4745 33.425 57.566 33.4072C58.073 33.3031 58.5956 33.3031 59.1026 33.4072C59.1984 33.4255 59.2899 33.4543 59.3805 33.4794C59.5191 33.5181 59.6692 33.56 59.8095 33.618C59.9219 33.6625 60.0318 33.7127 60.1401 33.7651C60.2484 33.8179 60.3483 33.8734 60.4498 33.933C60.5513 33.9926 60.6858 34.079 60.7972 34.1622C60.8668 34.2124 60.9291 34.2689 60.9945 34.3249C61.6542 34.88 62.1261 35.6255 62.3443 36.4599C62.3443 36.474 62.3568 36.4835 62.361 36.4976C62.4494 36.8251 62.497 37.162 62.5028 37.5016C62.5028 38.6065 62.0639 39.6665 61.2822 40.4481C60.5006 41.2292 59.4412 41.6682 58.3357 41.6682ZM65.5053 13.6397L71.2127 22.2235H64.1287L65.5053 13.6397ZM62.8747 12.5007L61.1314 23.3928C61.0676 23.7946 61.1822 24.2037 61.4459 24.5135C61.7095 24.8227 62.0956 25.0011 62.5027 25.0016H72.0696L70.1627 33.6242C70.0219 34.2666 69.4522 34.7244 68.7945 34.7239H64.6917C64.6001 34.5157 64.4777 34.3236 64.3668 34.1264C64.3072 34.0181 64.2543 33.903 64.1889 33.7973C64.0764 33.621 63.9488 33.4573 63.8206 33.292C63.6929 33.1266 63.5773 32.9838 63.4455 32.8394C63.3136 32.695 63.1938 32.5616 63.0578 32.4407H63.0583C62.87 32.2649 62.6727 32.1001 62.4666 31.9463C62.3609 31.8673 62.2636 31.7784 62.1543 31.7062L62.1537 31.7057C61.8372 31.4979 61.5034 31.3169 61.1566 31.1642C61.0357 31.1097 60.9091 31.0668 60.7846 31.0255C60.5151 30.9224 60.2394 30.8366 59.9595 30.7681C59.8329 30.7378 59.7094 30.7058 59.5802 30.6833C58.7588 30.5149 57.9123 30.5149 57.0914 30.6833C56.9622 30.7053 56.8388 30.7378 56.7121 30.7681C56.4317 30.8366 56.1565 30.9224 55.8871 31.0255C55.762 31.0726 55.6354 31.116 55.5151 31.1642H55.5146C55.1677 31.3169 54.8344 31.4979 54.5174 31.7057C54.4075 31.7779 54.3102 31.8668 54.2051 31.9458V31.9463C53.9989 32.0986 53.8017 32.2613 53.6133 32.435C53.4747 32.5616 53.3507 32.6945 53.2257 32.8336C53.1006 32.9723 52.9704 33.1292 52.8505 33.2862C52.7313 33.4431 52.5952 33.6153 52.4822 33.7916C52.4168 33.8973 52.364 34.0124 52.3043 34.1207C52.1934 34.3179 52.071 34.5094 51.9794 34.7181L25.8006 34.7186C25.709 34.5104 25.5866 34.3184 25.4757 34.1212C25.416 34.0129 25.3632 33.8978 25.2978 33.7921C25.1853 33.6158 25.0577 33.452 24.9295 33.2867C24.8018 33.1214 24.6862 32.9786 24.5544 32.8342C24.4225 32.6898 24.3027 32.5564 24.1667 32.4355L24.1672 32.435C23.9789 32.2613 23.7811 32.0986 23.5755 31.9463C23.4698 31.8673 23.3725 31.7784 23.2632 31.7062L23.2626 31.7057C22.9461 31.4979 22.6123 31.3169 22.2654 31.1642C22.1446 31.1097 22.018 31.0668 21.8935 31.0255C21.624 30.9224 21.3483 30.8366 21.0684 30.7681C20.9418 30.7378 20.8183 30.7058 20.6891 30.6833C19.8682 30.5149 19.0212 30.5149 18.2003 30.6833C18.0711 30.7053 17.9476 30.7378 17.821 30.7681C17.5411 30.8366 17.2654 30.9224 16.996 31.0255C16.8709 31.0726 16.7443 31.116 16.624 31.1642H16.6235C16.2771 31.3169 15.9433 31.4979 15.6263 31.7057C15.5164 31.7779 15.4191 31.8668 15.3139 31.9458V31.9463C15.1078 32.0986 14.9106 32.2613 14.7222 32.435C14.5836 32.5616 14.4596 32.6945 14.3346 32.8336C14.2095 32.9723 14.0792 33.1292 13.9594 33.2862C13.8401 33.4431 13.7041 33.6153 13.5911 33.7916C13.5257 33.8973 13.4729 34.0124 13.4132 34.1207C13.3023 34.3179 13.1799 34.5094 13.0883 34.7181L8.94265 34.7186C8.52567 34.7186 8.13067 34.5314 7.867 34.208C7.60278 33.8852 7.49815 33.4604 7.58186 33.0518L8.08307 30.5573H46.0201C48.2195 30.5656 50.3488 29.7861 52.0225 28.3589C53.6956 26.9317 54.8021 24.9518 55.1411 22.7791L56.7854 12.5007L62.8747 12.5007Z" fill="white"/>
<path id="Vector_3" d="M20.834 37.5013C20.834 38.2683 20.2124 38.8904 19.4449 38.8904C18.6779 38.8904 18.0564 38.2683 18.0564 37.5013C18.0564 36.7344 18.678 36.1123 19.4449 36.1123C20.2124 36.1123 20.834 36.7344 20.834 37.5013Z" fill="white"/>
<path id="Vector_4" d="M59.7259 37.5013C59.7259 38.2683 59.1038 38.8904 58.3369 38.8904C57.5699 38.8904 56.9478 38.2683 56.9478 37.5013C56.9478 36.7344 57.5699 36.1123 58.3369 36.1123C59.1038 36.1123 59.7259 36.7344 59.7259 37.5013Z" fill="white"/>
</g>
</svg>
