<svg width="14" height="9" viewBox="0 0 14 9" fill="none" xmlns="http://www.w3.org/2000/svg">
<g id="Icon">
<path id="Vector" fill-rule="evenodd" clip-rule="evenodd" d="M0.293723 8.66964C0.386594 8.77436 0.496921 8.85744 0.618385 8.91413C0.739849 8.97082 0.870063 9 1.00157 9C1.13307 9 1.26329 8.97082 1.38475 8.91413C1.50622 8.85744 1.61654 8.77436 1.70941 8.66964L7.00026 2.71655L12.2911 8.66964C12.4788 8.88079 12.7335 8.99941 12.999 8.99941C13.2644 8.99941 13.5191 8.88079 13.7068 8.66964C13.8945 8.45849 14 8.1721 14 7.87349C14 7.57488 13.8945 7.2885 13.7068 7.07735L7.70811 0.330363C7.61524 0.225642 7.50491 0.142559 7.38344 0.0858698C7.26198 0.0291806 7.13177 4.4284e-08 7.00026 4.34674e-08C6.86876 4.26509e-08 6.73854 0.0291806 6.61708 0.0858698C6.49561 0.142559 6.38529 0.225642 6.29242 0.330363L0.293723 7.07735C0.200617 7.1818 0.126747 7.3059 0.0763449 7.44251C0.025943 7.57913 -8.28669e-08 7.72558 -7.32493e-08 7.87349C-6.36316e-08 8.0214 0.0259431 8.16786 0.076345 8.30447C0.126747 8.44109 0.200617 8.56518 0.293723 8.66964Z" fill="white"/>
</g>
</svg>
