<svg width="57" height="43" viewBox="0 0 57 43" fill="none" xmlns="http://www.w3.org/2000/svg">
<g id="Payment">
<path id="Vector" d="M51.3749 20.2138V5.26147C51.3749 2.36003 49.0131 0 46.111 0H5.26043C2.35797 0 0 2.36018 0 5.26147V26.5314C0 29.4338 2.35841 31.7912 5.26043 31.7912H31.5331C32.22 38.0868 37.5645 43 44.0351 43C50.972 43 56.6164 37.3574 56.6164 30.422C56.617 26.2211 54.5437 22.4986 51.3756 20.2128L51.3749 20.2138ZM2.74298 5.26147C2.74298 3.87499 3.86978 2.74652 5.2597 2.74652H46.1103C47.4985 2.74652 48.627 3.87505 48.627 5.26147V9.09904H2.74268L2.74298 5.26147ZM5.2597 29.049C3.86975 29.049 2.74298 27.9233 2.74298 26.5329V13.2145H48.6273V18.7143C47.2051 18.1546 45.6557 17.842 44.0343 17.842C37.5631 17.842 32.2187 22.7557 31.5324 29.0484L5.2597 29.0478V29.049ZM44.0349 40.2566C39.0774 40.2566 34.968 36.5716 34.3007 31.7925C34.2345 31.3469 34.2011 30.8886 34.2011 30.4233C34.2011 29.9575 34.2351 29.4986 34.3007 29.0489C34.9686 24.2751 39.0774 20.5873 44.0349 20.5873C45.6955 20.5873 47.2575 21.0024 48.6279 21.7308C49.6678 22.2812 50.5964 23.0136 51.375 23.8835C52.9245 25.623 53.8705 27.9123 53.8705 30.4233C53.8711 35.8454 49.46 40.2566 44.0349 40.2566Z" fill="white"/>
<path id="Vector_2" fill-rule="evenodd" clip-rule="evenodd" d="M48.3338 31.1754L43.9373 37.1452L39.5408 31.1754H39.5607C39.0412 30.3795 38.7413 29.4243 38.7413 28.3896C38.7413 25.5241 41.0595 23.2158 43.9372 23.2158C46.8149 23.2158 49.1331 25.5242 49.1331 28.3896C49.1331 29.4244 48.8334 30.3795 48.3137 31.1754H48.3338ZM43.9373 26.3996C42.8381 26.3996 41.9389 27.295 41.9389 28.3895C41.9389 29.484 42.8381 30.3795 43.9373 30.3795C45.0365 30.3795 45.9357 29.484 45.9357 28.3895C45.9357 27.2952 45.0365 26.3996 43.9373 26.3996Z" fill="#FFB703"/>
</g>
</svg>
