<svg width="52" height="45" viewBox="0 0 52 45" fill="none" xmlns="http://www.w3.org/2000/svg">
<g id="Return">
<path id="Vector" d="M51 20.1825C51 16.7523 49.8693 13.5289 47.7303 10.8611C47.5297 10.611 47.1942 10.5134 46.8915 10.6159C46.5881 10.7184 46.3813 10.9999 46.3743 11.3201C46.3171 13.8336 45.5484 16.183 44.2673 18.178L44.267 11.3773C44.2673 11.37 44.267 11.3627 44.267 11.3553V11.3389C44.267 11.3375 44.2666 11.3362 44.2666 11.3344C44.2663 11.2347 44.2464 11.136 44.2073 11.0428C44.207 11.0421 44.2066 11.0414 44.2063 11.0407C44.1878 10.9975 44.1651 10.956 44.1386 10.9162C44.1376 10.9145 44.1362 10.9128 44.1351 10.9107C44.1285 10.9009 44.1229 10.8901 44.1156 10.8807L36.9337 1.30483C36.79 1.11301 36.564 1 36.324 1H24.867H24.8621H20.4041H20.3953H8.94274C8.70279 1 8.47714 1.113 8.33309 1.30483L1.15117 10.8807C1.14385 10.8904 1.13827 10.9012 1.13129 10.9114C1.1306 10.9127 1.12955 10.9138 1.12885 10.9152C1.0441 11.0418 1.00085 11.1879 1.0005 11.3358C1.0005 11.3369 1.00015 11.3379 1.00015 11.3389V11.3505C1.00015 11.3599 0.999806 11.3689 1.00015 11.3784V43.8058C1.00015 44.2268 1.34125 44.5679 1.76222 44.5679H43.5048C43.9258 44.5679 44.2669 44.2268 44.2669 43.8058L44.2665 32.6425C48.3182 29.9733 50.9995 25.386 50.9995 20.1828L51 20.1825ZM22.6912 16.4852H18.5887V12.1008H26.6777V16.4852H22.6912ZM24.3196 2.52454L26.4495 10.5766H18.8164L20.9463 2.52454H24.3196ZM41.982 10.5766H28.0259L25.896 2.52454H35.9432L41.982 10.5766ZM9.32329 2.52454H19.3697L17.2398 10.5766H3.28449L9.32329 2.52454ZM42.7427 43.0439H2.52422V12.1013H17.0643V17.2474C17.0643 17.6684 17.4054 18.0095 17.8264 18.0095H27.4388C27.8598 18.0095 28.2009 17.6684 28.2009 17.2474V12.1013H42.7419V20.1355C40.2872 22.7526 36.8062 24.3971 32.9848 24.3971L23.3947 24.3974V20.4954C23.3947 20.2021 23.2266 19.9349 22.9622 19.8083C22.6978 19.6817 22.3843 19.7176 22.1555 19.9015L11.2913 28.6305C11.1113 28.7752 11.0067 28.9936 11.0067 29.2245C11.0067 29.4553 11.1113 29.6737 11.2913 29.8184L22.1555 38.5475C22.2936 38.6584 22.4624 38.7156 22.6329 38.7156C22.7449 38.7156 22.8576 38.6908 22.9622 38.6406C23.2266 38.514 23.3947 38.2465 23.3947 37.9535V35.0971H36.0821C38.475 35.0971 40.7361 34.5276 42.7422 33.5224L42.7427 43.0439ZM36.0826 33.5735H22.6336C22.2126 33.5735 21.8715 33.9146 21.8715 34.3355V36.3643L12.9852 29.2247L21.8715 22.0853V25.1598C21.8715 25.5807 22.2126 25.9218 22.6336 25.9218H32.9862C36.9098 25.9218 40.6152 24.411 43.4183 21.6672C43.6303 21.4601 43.8326 21.2456 44.0307 21.0279C44.0464 21.0129 44.0604 20.9958 44.0746 20.9794C45.982 18.8635 47.2289 16.2822 47.6949 13.4987C48.865 15.5173 49.4757 17.7945 49.4757 20.1836C49.4757 27.5666 43.4674 33.5737 36.0829 33.5737L36.0826 33.5735Z" fill="white" stroke="white" stroke-width="0.7"/>
</g>
</svg>
