<svg width="41" height="56" viewBox="0 0 41 56" fill="none" xmlns="http://www.w3.org/2000/svg">
<g id="Standard">
<path id="Vector" d="M38.7564 22.4095C39.3679 21.6879 40 20.9414 40 20.059C40 19.1767 39.3679 18.4302 38.7564 17.7085C38.2908 17.1587 37.8512 16.6399 37.734 16.1243C37.6098 15.5791 37.7926 14.8711 37.9695 14.1862C38.2012 13.288 38.441 12.359 38.0724 11.5959C37.6964 10.8172 36.811 10.4226 35.9547 10.0416C35.3168 9.75756 34.6575 9.46423 34.3188 9.03974C33.977 8.61139 33.8361 7.90014 33.6995 7.21229C33.518 6.29621 33.3302 5.34868 32.6593 4.8129C31.9919 4.28016 31.0297 4.30655 30.0985 4.33255C29.3946 4.35195 28.6675 4.37174 28.1697 4.13195C27.6866 3.89876 27.2753 3.35051 26.8404 2.77045C26.2754 2.01695 25.6911 1.23741 24.8394 1.04381C24.023 0.858734 23.1764 1.29602 22.3581 1.71894C21.7245 2.04642 21.0692 2.38553 20.5004 2.38553C19.9316 2.38553 19.2763 2.0468 18.6426 1.71894C17.8243 1.29563 16.9777 0.858346 16.161 1.04381C15.3097 1.23743 14.7254 2.01654 14.16 2.77005C13.7247 3.35051 13.3138 3.89873 12.8307 4.13156C12.3329 4.37174 11.6054 4.35195 10.9019 4.33215C9.97072 4.30654 9.00852 4.28016 8.34112 4.81289C7.67027 5.34872 7.48209 6.29627 7.30045 7.21228C7.16388 7.90021 7.02303 8.61143 6.6812 9.03944C6.34246 9.46352 5.68284 9.75725 5.04535 10.0409C4.18902 10.4223 3.30321 10.8165 2.92765 11.5952C2.55944 12.3588 2.79883 13.2872 3.03047 14.1855C3.20701 14.8703 3.38977 15.5784 3.26599 16.124C3.14881 16.6396 2.7092 17.1584 2.2436 17.7082C1.63211 18.4299 1 19.1764 1 20.0587C1 20.941 1.63206 21.6875 2.2436 22.4092C2.7092 22.959 3.14881 23.4778 3.26599 23.9934C3.39015 24.5386 3.20741 25.2467 3.03047 25.9315C2.79884 26.8298 2.55905 27.7587 2.92765 28.5218C3.30363 29.3006 4.18903 29.6951 5.04535 30.0761C5.68323 30.3602 6.34248 30.6535 6.6812 31.078C7.02303 31.5059 7.16388 32.2176 7.30045 32.9054C7.48204 33.8215 7.66984 34.769 8.34073 35.3048C8.92467 35.7712 9.73481 35.8092 10.5516 35.7941V54.8057C10.5516 54.924 10.6168 55.0327 10.7211 55.0885C10.8255 55.1444 10.952 55.1382 11.0506 55.0726L20.5 48.773L29.9495 55.0726C30.0031 55.1083 30.0651 55.1266 30.1276 55.1266C30.1796 55.1266 30.2316 55.1142 30.2789 55.0885C30.3833 55.0327 30.4485 54.924 30.4485 54.8057L30.4481 35.7941C31.2648 35.8092 32.075 35.7712 32.6586 35.3048C33.3294 34.769 33.5176 33.8214 33.6992 32.9054C33.8358 32.2175 33.9767 31.5063 34.3185 31.0783C34.6572 30.6542 35.3168 30.3605 35.9543 30.0768C36.8107 29.6954 37.6965 29.3012 38.072 28.5225C38.4403 27.7589 38.2009 26.8305 37.9692 25.9322C37.7927 25.2474 37.6099 24.5393 37.7337 23.9937C37.8513 23.4781 38.2908 22.9589 38.7564 22.4095ZM11.1936 35.7782C11.8016 35.7658 12.4014 35.7794 12.8305 35.9862C13.3136 36.2194 13.7249 36.7673 14.1598 37.3477C14.7248 38.1012 15.3095 38.8804 16.1608 39.074C16.9776 39.259 17.8238 38.8221 18.6425 38.3988C19.16 38.1311 19.692 37.8564 20.1794 37.7644V48.2159L11.194 54.2063L11.1936 35.7782ZM20.8207 48.2162V37.7648C21.3081 37.8568 21.8401 38.1315 22.3577 38.3992C23.0433 38.7535 23.7483 39.1182 24.4389 39.1182C24.5728 39.1182 24.7062 39.1046 24.8389 39.0743C25.6902 38.8807 26.2745 38.1016 26.8399 37.3481C27.2753 36.7676 27.6861 36.2194 28.1692 35.9866C28.5984 35.7798 29.1982 35.7662 29.8062 35.7786V54.2061L20.8207 48.2162ZM37.3481 26.0927C37.5603 26.9152 37.7606 27.6924 37.4944 28.2437C37.2209 28.811 36.479 29.1412 35.6937 29.4904C34.9855 29.8055 34.2538 30.1314 33.8172 30.6781C33.3776 31.2287 33.2213 32.0178 33.0699 32.7811C32.9035 33.6211 32.7463 34.4146 32.2586 34.8037C31.7748 35.1902 30.9689 35.1677 30.1161 35.1444C29.3358 35.1231 28.5291 35.1009 27.8909 35.4086C27.267 35.7097 26.789 36.3468 26.3269 36.9633C25.8314 37.6241 25.3189 38.3073 24.6973 38.449C24.1095 38.5829 23.4017 38.217 22.6529 37.8293C21.951 37.4666 21.2254 37.0914 20.5006 37.0914C19.7758 37.0914 19.0499 37.4666 18.348 37.8297C17.5991 38.217 16.891 38.5828 16.3036 38.449C15.682 38.3078 15.1694 37.6245 14.674 36.9633C14.2119 36.3468 13.7339 35.7097 13.11 35.4086C12.4717 35.1009 11.665 35.1231 10.8848 35.1444C10.0316 35.1677 9.22609 35.1902 8.74226 34.8037C8.25453 34.4142 8.09739 33.6211 7.93094 32.7811C7.77962 32.0179 7.62324 31.2283 7.18364 30.6781C6.74714 30.1314 6.01494 29.8055 5.30722 29.4904C4.5219 29.1408 3.78003 28.8106 3.50648 28.2437C3.24031 27.692 3.44052 26.9152 3.65276 26.0927C3.84871 25.3337 4.05085 24.5488 3.89255 23.8519C3.74085 23.1834 3.22906 22.5793 2.73398 21.9953C2.19737 21.3617 1.64255 20.7067 1.64255 20.06C1.64255 19.4128 2.197 18.7579 2.73358 18.1243C3.22829 17.54 3.74008 16.9362 3.89215 16.2677C4.05047 15.5705 3.84831 14.7859 3.65236 14.027C3.44013 13.2044 3.23992 12.4276 3.50608 11.8759C3.77962 11.3086 4.52152 10.9784 5.30682 10.6292C6.01493 10.3141 6.74669 9.98823 7.18325 9.44153C7.62286 8.89095 7.77922 8.10178 7.93054 7.33854C8.09699 6.49851 8.25413 5.70507 8.74186 5.3159C9.2257 4.92945 10.0311 4.95156 10.8844 4.97523C11.6647 4.99696 12.4714 5.01869 13.1096 4.71099C13.7335 4.40991 14.2115 3.7728 14.6736 3.1563C15.1691 2.49553 15.6816 1.81227 16.3032 1.67063C16.891 1.53715 17.5987 1.90265 18.3476 2.29027C19.0495 2.65305 19.7754 3.02865 20.5002 3.02865C21.225 3.02865 21.9509 2.65345 22.6529 2.29027C23.4018 1.90305 24.1095 1.53716 24.6973 1.67063C25.3189 1.81187 25.8314 2.49514 26.3269 3.1563C26.789 3.77244 27.267 4.40993 27.8909 4.71099C28.5292 5.01907 29.3359 4.99695 30.1161 4.97523C30.9689 4.95195 31.7748 4.92944 32.2586 5.3159C32.7463 5.70546 32.9035 6.49851 33.0699 7.33854C33.2213 8.10174 33.3776 8.89135 33.8172 9.44153C34.2537 9.98823 34.9855 10.3142 35.6937 10.6292C36.479 10.9788 37.2208 11.309 37.4944 11.8759C37.7606 12.4276 37.5604 13.2044 37.3481 14.027C37.1522 14.7859 36.95 15.5708 37.1083 16.2677C37.26 16.9363 37.7718 17.5403 38.2669 18.1243C38.8035 18.7579 39.3583 19.4129 39.3583 20.0596C39.3583 20.7068 38.8035 21.3617 38.2669 21.9949C37.7722 22.5793 37.2604 23.183 37.1083 23.8515C36.95 24.5487 37.1522 25.3337 37.3481 26.0926V26.0927Z" fill="white" stroke="white" stroke-width="1.6"/>
<path id="Vector_2" d="M20.4997 8.48779C13.8345 8.48779 8.41235 13.9102 8.41235 20.5751C8.41235 27.2403 13.8347 32.6625 20.4997 32.6625C27.1647 32.6625 32.5871 27.2401 32.5871 20.5751C32.5871 13.91 27.1647 8.48779 20.4997 8.48779ZM20.4997 32.0218C14.1884 32.0218 9.05402 26.8874 9.05402 20.5761C9.05402 14.2649 14.1884 9.13045 20.4997 9.13045C26.811 9.13045 31.9454 14.2649 31.9454 20.5761C31.9454 26.8874 26.811 32.0218 20.4997 32.0218Z" fill="white" stroke="white" stroke-width="1.6"/>
<path id="Vector_3" d="M27.3703 18.0399L22.8217 17.3788L20.7875 13.257C20.7335 13.1476 20.6218 13.0781 20.4996 13.0781C20.3773 13.0781 20.266 13.1476 20.2117 13.257L18.1774 17.3788L13.6288 18.0399C13.5078 18.0574 13.4077 18.1423 13.37 18.2584C13.3324 18.3744 13.3638 18.502 13.4511 18.5874L16.7426 21.7958L15.9654 26.3261C15.9449 26.4464 15.9941 26.5682 16.0931 26.64C16.1916 26.7118 16.3228 26.7215 16.431 26.6645L20.4996 24.5254L24.5683 26.6641C24.6152 26.6885 24.6664 26.7009 24.7176 26.7009C24.784 26.7009 24.8503 26.6804 24.9062 26.6396C25.0051 26.5678 25.0544 26.446 25.0339 26.3257L24.2567 21.7954L27.5482 18.587C27.6355 18.5016 27.6673 18.3744 27.6293 18.258C27.5916 18.1423 27.4911 18.0574 27.3705 18.0399L27.3703 18.0399ZM23.6878 21.454C23.6121 21.5277 23.5776 21.634 23.5954 21.738L24.2911 25.7938L20.6489 23.879C20.5554 23.8297 20.4437 23.8297 20.3502 23.879L16.708 25.7938L17.4036 21.738C17.4215 21.634 17.387 21.5277 17.3113 21.454L14.3648 18.5816L18.4369 17.9898C18.5413 17.9747 18.6317 17.9091 18.6786 17.8145L20.4995 14.1242L22.3204 17.8141C22.367 17.9088 22.4574 17.9743 22.5622 17.9895L26.6342 18.5812L23.6878 21.454Z" fill="#FFB703" stroke="#FFB703" stroke-width="1.6"/>
</g>
</svg>
