<svg width="41" height="43" viewBox="0 0 41 43" fill="none" xmlns="http://www.w3.org/2000/svg">
<path id="Vector" d="M38.745 0H2.255C1.65694 0 1.08337 0.249169 0.660474 0.692693C0.23758 1.13622 0 1.73776 0 2.365V40.635C0 40.9456 0.0583275 41.2531 0.171652 41.54C0.284976 41.827 0.451078 42.0877 0.660474 42.3073C0.869871 42.5269 1.11846 42.7011 1.39205 42.82C1.66564 42.9388 1.95887 43 2.255 43H21.894V26.3375H16.564V19.8875H21.894V15.05C21.7836 13.9143 21.9114 12.767 22.2686 11.6886C22.6257 10.6101 23.2035 9.62672 23.9614 8.80728C24.7192 7.98785 25.6389 7.35223 26.6558 6.94501C27.6727 6.5378 28.7622 6.36884 29.848 6.45C31.4436 6.4397 33.0384 6.52585 34.6245 6.708V12.513H31.365C28.782 12.513 28.29 13.803 28.29 15.6735V19.823H34.44L33.6405 26.273H28.29V43H38.745C39.0411 43 39.3344 42.9388 39.6079 42.82C39.8815 42.7011 40.1301 42.5269 40.3395 42.3073C40.5489 42.0877 40.715 41.827 40.8283 41.54C40.9417 41.2531 41 40.9456 41 40.635V2.365C41 2.05442 40.9417 1.74689 40.8283 1.45995C40.715 1.17302 40.5489 0.912303 40.3395 0.692693C40.1301 0.473082 39.8815 0.298877 39.6079 0.180025C39.3344 0.0611727 39.0411 0 38.745 0Z" fill="white"/>
</svg>
